<svg xmlns="http://www.w3.org/2000/svg" xmlns:xlink="http://www.w3.org/1999/xlink" version="1.1" role="img" id="Layer_1" x="0px" y="0px" width="120.5px" height="81px" viewBox="0 0 120.5 81" enable-background="new 0 0 120.5 81" xml:space="preserve"> <g> <g> <path fill="#0085BA" d="M116.701,80.796H3.799c-1.957,0-3.549-1.592-3.549-3.549V3.753c0-1.957,1.592-3.549,3.549-3.549h112.902 c1.956,0,3.549,1.592,3.549,3.549v73.494C120.25,79.204,118.657,80.796,116.701,80.796z M3.799,1.979 c-0.979,0-1.773,0.797-1.773,1.774v73.494c0,0.979,0.795,1.772,1.773,1.772h112.902c0.979,0,1.773-0.797,1.773-1.772V3.753 c0-0.979-0.795-1.774-1.773-1.774H3.799z"></path> </g> </g> <path fill="#0085BA" d="M60.25,19.5c-11.581,0-21,9.419-21,21c0,11.578,9.419,21,21,21c11.578,0,21-9.422,21-21 C81.25,28.919,71.828,19.5,60.25,19.5z M42.308,40.5c0-9.892,8.05-17.942,17.942-17.942c4.412,0,8.452,1.6,11.578,4.249 L46.557,52.078C43.908,48.952,42.308,44.912,42.308,40.5z M60.25,58.439c-4.385,0-8.407-1.579-11.526-4.201l25.265-25.265 c2.622,3.12,4.201,7.141,4.201,11.526C78.189,50.392,70.142,58.439,60.25,58.439z"></path> </svg>
