<svg xmlns="http://www.w3.org/2000/svg" xmlns:xlink="http://www.w3.org/1999/xlink" version="1.1" role="img" id="Layer_1" x="0px" y="0px" width="120.5px" height="81px" viewBox="0 0 120.5 81" enable-background="new 0 0 120.5 81" xml:space="preserve"><g><path fill="#0085BA" d="M3.799,0.204h112.902c1.958,0,3.549,1.593,3.549,3.55v73.494c0,1.957-1.592,3.549-3.549,3.549H3.799 c-1.957,0-3.549-1.592-3.549-3.549V3.754C0.25,1.797,1.842,0.204,3.799,0.204z M116.701,79.021c0.979,0,1.774-0.795,1.774-1.773 l0.001-73.494c0-0.979-0.797-1.774-1.775-1.774H3.799c-0.979,0-1.773,0.795-1.773,1.774v73.494c0,0.979,0.795,1.773,1.773,1.773 H116.701z"></path></g><line fill="none" stroke="#0085BA" stroke-miterlimit="10" x1="120.25" y1="58.659" x2="0.965" y2="58.659"></line><g><g><path fill="#0085BA" d="M26.805,64.475h66.89c0.98,0,1.774,0.628,1.774,1.4s-0.794,1.4-1.774,1.4h-66.89 c-0.98,0-1.773-0.628-1.773-1.4C25.031,65.102,25.826,64.475,26.805,64.475z"></path></g></g><g><ellipse fill="#0085BA" cx="72.604" cy="72.174" rx="2.146" ry="2.108"></ellipse><ellipse fill="#0085BA" cx="64.37" cy="72.174" rx="2.147" ry="2.108"></ellipse><ellipse fill="#0085BA" cx="56.132" cy="72.174" rx="2.145" ry="2.108"></ellipse><ellipse fill="#0085BA" cx="47.896" cy="72.174" rx="2.146" ry="2.108"></ellipse></g></svg>
