<svg xmlns="http://www.w3.org/2000/svg" xmlns:xlink="http://www.w3.org/1999/xlink" version="1.1" role="img" id="Layer_1" x="0px" y="0px" width="120.5px" height="81px" viewBox="0 0 120.5 81" enable-background="new 0 0 120.5 81" xml:space="preserve"><g><path fill="#0085BA" d="M120.25,3.754v73.494c0,1.957-1.592,3.549-3.549,3.549H3.799c-1.957,0-3.549-1.592-3.549-3.549V3.754 c0-1.957,1.591-3.55,3.549-3.55h112.902C118.658,0.204,120.25,1.797,120.25,3.754z M116.701,79.021 c0.979,0,1.773-0.795,1.773-1.773V3.754c0-0.979-0.795-1.774-1.773-1.774H3.799c-0.979,0-1.775,0.795-1.775,1.774l0.001,73.494 c0,0.979,0.796,1.773,1.774,1.773H116.701z"></path></g><g><g><path fill="#0085BA" d="M120.25,3.754v73.494c0,1.957-1.592,3.549-3.549,3.549H3.799c-1.957,0-3.549-1.592-3.549-3.549V3.754 c0-1.957,1.591-3.55,3.549-3.55h112.902C118.658,0.204,120.25,1.797,120.25,3.754z M116.701,79.021 c0.979,0,1.773-0.795,1.773-1.773V3.754c0-0.979-0.795-1.774-1.773-1.774H3.799c-0.979,0-1.775,0.795-1.775,1.774l0.001,73.494 c0,0.979,0.796,1.773,1.774,1.773H116.701z"></path></g></g><g><g><g><path fill="#0085BA" d="M63.184,69.175c0,0.979-0.793,1.774-1.773,1.774h-46.89c-0.98,0-1.774-0.795-1.774-1.774 S13.54,67.4,14.521,67.4h46.89C62.389,67.4,63.184,68.194,63.184,69.175z"></path></g></g><g><ellipse fill="#0085BA" cx="79.872" cy="69.175" rx="2.228" ry="2.188"></ellipse><ellipse fill="#0085BA" cx="88.422" cy="69.175" rx="2.229" ry="2.188"></ellipse><ellipse fill="#0085BA" cx="96.974" cy="69.175" rx="2.227" ry="2.188"></ellipse><ellipse fill="#0085BA" cx="105.525" cy="69.175" rx="2.229" ry="2.188"></ellipse></g></g><line fill="none" stroke="#0085BA" stroke-miterlimit="10" x1="120.25" y1="58.659" x2="0.965" y2="58.659"></line></svg>
