<svg width="120.5" height="81" xmlns="http://www.w3.org/2000/svg">

 <g>
  <title>background</title>
  <rect fill="none" id="canvas_background" height="402" width="582" y="-1" x="-1"/>
 </g>
 <g>
  <title>Layer 1</title>
  <g id="svg_1">
   <g id="svg_2">
    <path id="svg_3" d="m116.701,80.797l-112.902,0c-1.958,0 -3.549,-1.593 -3.549,-3.55l0,-73.494c0,-1.957 1.592,-3.549 3.549,-3.549l112.902,0c1.957,0 3.549,1.592 3.549,3.549l0,73.494c0,1.957 -1.592,3.55 -3.549,3.55zm-112.902,-78.818c-0.979,0 -1.775,0.795 -1.775,1.774l0,73.494c0,0.979 0.796,1.774 1.775,1.774l112.902,0c0.979,0 1.773,-0.795 1.773,-1.774l0,-73.494c0,-0.979 -0.795,-1.774 -1.773,-1.774l-112.902,0z" fill="#0085BA"/>
   </g>
   <g id="svg_4">
    <g stroke="null" id="svg_5">
     <path stroke="null" id="svg_6" d="m108.184192,17.6l-28.708381,0c-0.477742,0 -0.86481,-0.794 -0.86481,-1.774s0.387068,-1.774 0.86481,-1.774l28.708868,0c0.477254,0 0.864323,0.794 0.864323,1.774s-0.387556,1.774 -0.86481,1.774z" fill="#0085BA"/>
    </g>
    <g stroke="null" id="svg_15">
     <path stroke="null" id="svg_14" d="m43.18419,17.6l-28.70838,0c-0.47774,0 -0.86481,-0.794 -0.86481,-1.774s0.38707,-1.774 0.86481,-1.774l28.70887,0c0.47725,0 0.86432,0.794 0.86432,1.774s-0.38755,1.774 -0.86481,1.774z" fill="#0085BA"/>
    </g>
   </g>
  </g>
  <line id="svg_9" y2="28.342" x2="119.535" y1="28.342" x1="0.25" stroke-miterlimit="10" stroke="#0085BA" fill="none"/>
 </g>
</svg>